<svg xmlns="http://www.w3.org/2000/svg" viewBox="0 0 1536 1536">
<defs>
  <linearGradient id="g" x1="0" y1="0" x2="1" y2="1">
    <stop offset="0" stop-color="#6d29de"/><stop offset=".45" stop-color="#7b3fff"/><stop offset="1" stop-color="#a93efe"/>
  </linearGradient>
  <linearGradient id="house" x1="0" y1="0" x2="1" y2="1">
    <stop offset="0" stop-color="#8a4af1"/><stop offset=".48" stop-color="#9a55f6"/><stop offset="1" stop-color="#b15aff"/>
  </linearGradient>
  <filter id="relief" x="-25%" y="-25%" width="150%" height="150%">
    <feDropShadow dx="0" dy="14" stdDeviation="13" flood-color="#3a0f80" flood-opacity=".34"/>
    <feDropShadow dx="0" dy="-4" stdDeviation="5" flood-color="#d2b2ff" flood-opacity=".20"/>
  </filter>
</defs>
<rect width="1536" height="1536" fill="url(#g)"/>
<g transform="translate(768 768) scale(.72) translate(-768 -768)" filter="url(#relief)">
  <path d="M 673,350 L 637,373 L 386,581 L 359,613 L 340,650 L 328,702 L 328,1041 L 336,1081 L 350,1114 L 376,1151 L 396,1170 L 449,1199 L 487,1207 L 601,1207 L 628,1199 L 649,1185 L 663,1169 L 677,1131 L 677,963 L 685,934 L 704,906 L 724,890 L 749,880 L 776,878 L 819,895 L 838,914 L 852,938 L 858,962 L 858,1130 L 867,1159 L 891,1189 L 907,1199 L 934,1207 L 1049,1207 L 1087,1199 L 1112,1188 L 1144,1166 L 1170,1138 L 1193,1098 L 1205,1056 L 1207,701 L 1202,671 L 1189,635 L 1170,604 L 1139,572 L 898,373 L 862,350 L 827,336 L 785,328 L 724,332 Z" fill="url(#house)" stroke="#c096ff" stroke-width="10" stroke-opacity=".34"/>
</g>
</svg>